<svg width="40" height="40" viewBox="0 0 40 40" fill="none" xmlns="http://www.w3.org/2000/svg">
<path d="M38.75 0H34.0235C33.9788 0 33.9409 0.0240384 33.8974 0.0293152C33.8068 0.0399859 33.7221 0.0573405 33.6371 0.089939C33.566 0.117026 33.5018 0.150446 33.437 0.191018C33.3625 0.237805 33.2952 0.288579 33.2302 0.351782C33.1704 0.409709 33.1196 0.471388 33.0702 0.540924C33.0192 0.61257 32.9757 0.685507 32.9371 0.768527C32.8971 0.853776 32.869 0.941252 32.8445 1.03576C32.8312 1.08701 32.8024 1.12817 32.7938 1.18199L32.078 5.69172L1.48866 7.75235C1.37147 7.74296 1.26812 7.76266 1.1371 7.77674C0.457576 7.84803 -0.0469787 8.53471 0.00347669 9.31895C0.00754567 9.37805 0.0140562 9.43527 0.0238216 9.49156L2.15516 22.8912C2.64262 24.969 4.14408 27.0666 6.40237 27.0666H28.6849L28.2078 30.0722H9.45818C7.08433 30.0722 5.15237 32.2992 5.15237 35.0356C5.15237 37.773 7.08433 40 9.45818 40C11.832 40 13.764 37.773 13.764 35.0356C13.764 34.29 13.6103 33.5892 13.3535 32.954H24.8669C24.6102 33.5892 24.4565 34.29 24.4565 35.0356C24.4565 37.773 26.3884 40 28.7623 40C31.1361 40 33.0681 37.773 33.0681 35.0356C33.0681 33.0899 32.0824 31.419 30.6645 30.6058L35.0654 2.8818H38.75C39.4401 2.8818 40 2.2364 40 1.4409C40 0.645403 39.4401 0 38.75 0ZM30.0369 18.5491L24.7399 18.6451L25.0284 15.1064L30.6141 14.9133L30.0369 18.5491ZM3.57401 15.8478L8.86726 15.6649L9.21353 18.926L4.07765 19.019L3.57401 15.8478ZM10.5394 15.6071L16.3576 15.4061V18.7967L10.8887 18.8958L10.5394 15.6071ZM16.3576 13.4831L10.336 13.6913L9.95124 10.0691L16.3576 9.63731V13.4831ZM18.0242 9.52498L23.8412 9.13286L23.5068 13.236L18.0242 13.4255V9.52498ZM16.3576 20.7183V24.1848H11.4505L11.0924 20.8137L16.3576 20.7183ZM18.0242 20.6882L22.9065 20.5999L22.6142 24.1848H18.0242V20.6882ZM18.0242 18.7665V15.3485L23.3496 15.1644L23.0633 18.6753L18.0242 18.7665ZM30.921 12.9798L25.1855 13.178L25.5245 9.01947L31.6148 8.60894L30.921 12.9798ZM8.28478 10.1814L8.66371 13.7489L3.27016 13.9354C3.04291 12.5121 2.86194 11.406 2.70773 10.5572L8.28478 10.1814ZM4.59167 22.2561L4.38191 20.9352L9.41728 20.844L9.7721 24.1848H6.40237C5.33141 24.1848 4.7349 22.8471 4.59167 22.2561ZM24.2883 24.1848L24.583 20.5695L29.731 20.4763L29.1423 24.1848H24.2883ZM11.264 35.0356C11.264 36.1839 10.4543 37.1182 9.45818 37.1182C8.46209 37.1182 7.65236 36.1839 7.65236 35.0356C7.65236 33.8874 8.46209 32.954 9.45818 32.954C10.4543 32.954 11.264 33.8874 11.264 35.0356ZM28.7623 37.1182C27.7662 37.1182 26.9565 36.1839 26.9565 35.0356C26.9565 33.8874 27.7662 32.954 28.7623 32.954C29.7584 32.954 30.5681 33.8874 30.5681 35.0356C30.5681 36.1839 29.7584 37.1182 28.7623 37.1182Z" fill="#666666"/>
</svg>
